<svg xmlns="http://www.w3.org/2000/svg" width="34" height="30" viewBox="0 0 34 30" fill="none">
  <g clip-path="url(#clip0_20_13)">
    <path d="M32.2385 7.17779C32.6169 6.08223 32.7383 4.92818 32.595 3.78842C32.4517 2.64866 32.0468 1.54791 31.4058 0.555573C31.2971 0.386627 31.1408 0.246339 30.9525 0.148816C30.7643 0.051294 30.5507 -2.56296e-05 30.3333 1.81824e-05C28.8912 -0.00269074 27.4684 0.297329 26.1786 0.876107C24.8887 1.45489 23.7676 2.29638 22.9048 3.33335H19.1905C18.3276 2.29638 17.2065 1.45489 15.9167 0.876107C14.6268 0.297329 13.204 -0.00269074 11.7619 1.81824e-05C11.5445 -2.56296e-05 11.331 0.051294 11.1427 0.148816C10.9544 0.246339 10.7981 0.386627 10.6894 0.555573C10.0485 1.54791 9.64356 2.64866 9.50026 3.78842C9.35696 4.92818 9.47835 6.08223 9.85678 7.17779C9.09184 8.37601 8.68208 9.73025 8.66667 11.1111V12.2222C8.66927 14.1022 9.42975 15.9179 10.8077 17.334C12.1856 18.75 14.0879 19.6709 16.1633 19.9264C15.3162 20.8993 14.8563 22.0986 14.8571 23.3333V24.4444H11.1429C10.1578 24.4444 9.21302 24.0933 8.51646 23.4681C7.8199 22.843 7.42857 21.9952 7.42857 21.1111C7.42857 20.3816 7.26845 19.6591 6.95735 18.9851C6.64625 18.3111 6.19026 17.6986 5.61542 17.1827C5.04058 16.6669 4.35815 16.2576 3.60709 15.9785C2.85602 15.6993 2.05104 15.5556 1.2381 15.5556C0.909732 15.5556 0.594818 15.6726 0.36263 15.881C0.130442 16.0894 0 16.372 0 16.6667C0 16.9614 0.130442 17.244 0.36263 17.4523C0.594818 17.6607 0.909732 17.7778 1.2381 17.7778C2.22318 17.7778 3.16793 18.129 3.86449 18.7541C4.56106 19.3792 4.95238 20.2271 4.95238 21.1111C4.95238 22.5845 5.60459 23.9976 6.76553 25.0395C7.92647 26.0814 9.50104 26.6667 11.1429 26.6667H14.8571V28.8889C14.8571 29.1836 14.9876 29.4662 15.2198 29.6746C15.452 29.8829 15.7669 30 16.0952 30C16.4236 30 16.7385 29.8829 16.9707 29.6746C17.2029 29.4662 17.3333 29.1836 17.3333 28.8889V23.3333C17.3333 22.4493 17.7247 21.6014 18.4212 20.9763C19.1178 20.3512 20.0625 20 21.0476 20C22.0327 20 22.9775 20.3512 23.674 20.9763C24.3706 21.6014 24.7619 22.4493 24.7619 23.3333V28.8889C24.7619 29.1836 24.8923 29.4662 25.1245 29.6746C25.3567 29.8829 25.6716 30 26 30C26.3284 30 26.6433 29.8829 26.8755 29.6746C27.1077 29.4662 27.2381 29.1836 27.2381 28.8889V23.3333C27.2389 22.0986 26.7791 20.8993 25.9319 19.9264C28.0073 19.6709 29.9096 18.75 31.2876 17.334C32.6655 15.9179 33.426 14.1022 33.4286 12.2222V11.1111C33.4132 9.73025 33.0034 8.37601 32.2385 7.17779ZM30.9524 12.2222C30.9524 13.6957 30.3002 15.1087 29.1392 16.1506C27.9783 17.1925 26.4037 17.7778 24.7619 17.7778H17.3333C15.6915 17.7778 14.1169 17.1925 12.956 16.1506C11.7951 15.1087 11.1429 13.6957 11.1429 12.2222V11.1111C11.158 10 11.5287 8.91629 12.2107 7.9889C12.3379 7.83851 12.4202 7.66153 12.45 7.47466C12.4798 7.28779 12.456 7.09719 12.381 6.92085C12.0585 6.17445 11.9033 5.37829 11.9242 4.57797C11.9452 3.77765 12.142 2.98892 12.5032 2.25696C13.5165 2.35478 14.4922 2.65601 15.3581 3.13831C16.2239 3.62061 16.9578 4.27162 17.5051 5.04307C17.6167 5.19961 17.7702 5.32854 17.9516 5.41807C18.133 5.5076 18.3365 5.55488 18.5436 5.55557H23.5501C23.7579 5.55558 23.9624 5.50863 24.1447 5.41907C24.327 5.3295 24.4812 5.2002 24.5932 5.04307C25.1405 4.27155 25.8743 3.62049 26.7402 3.13818C27.6061 2.65587 28.5818 2.35469 29.5951 2.25696C29.9559 2.9891 30.1521 3.77793 30.1725 4.57825C30.193 5.37856 30.0373 6.17464 29.7143 6.92085C29.6395 7.09551 29.6144 7.28417 29.6414 7.46972C29.6685 7.65527 29.7467 7.83182 29.869 7.98335C30.5578 8.91074 30.934 9.99673 30.9524 11.1111V12.2222Z" fill="black"/>
  </g>
  <defs>
    <clipPath id="clip0_20_13">
      <rect width="33.4286" height="30" fill="white"/>
    </clipPath>
  </defs>
</svg>