<svg xmlns="http://www.w3.org/2000/svg" width="39" height="34" viewBox="0 0 39 34" fill="none">
  <path d="M35.5379 0H3.8712C3.03164 0.000837309 2.22673 0.294603 1.63308 0.816849C1.03942 1.33909 0.705481 2.04717 0.704529 2.78574V30.6431C0.705489 31.3817 1.03943 32.0897 1.63308 32.612C2.22674 33.1342 3.03164 33.428 3.8712 33.4288H35.5379C36.3774 33.428 37.1823 33.1342 37.776 32.612C38.3696 32.0897 38.7036 31.3817 38.7045 30.6431V2.78574C38.7036 2.04717 38.3696 1.33909 37.776 0.816849C37.1823 0.294603 36.3774 0.000837309 35.5379 0ZM35.5379 30.6431H3.8712V2.78574H35.5379L35.5399 30.643L35.5379 30.6431ZM13.3712 13.9289V25.0718C13.3712 25.4412 13.2044 25.7955 12.9074 26.0567C12.6105 26.3179 12.2078 26.4647 11.7879 26.4647C11.3679 26.4647 10.9652 26.3179 10.6683 26.0567C10.3713 25.7955 10.2045 25.4412 10.2045 25.0718V13.9289C10.2045 13.5594 10.3713 13.2052 10.6683 12.944C10.9652 12.6827 11.3679 12.536 11.7879 12.536C12.2078 12.536 12.6105 12.6827 12.9074 12.944C13.2044 13.2052 13.3712 13.5594 13.3712 13.9289ZM14.1629 8.35739C14.1629 8.77061 14.0236 9.17455 13.7626 9.51814C13.5016 9.86172 13.1307 10.1295 12.6967 10.2876C12.2628 10.4458 11.7852 10.4872 11.3245 10.4065C10.8638 10.3259 10.4406 10.1269 10.1085 9.83475C9.77633 9.54255 9.55014 9.17027 9.4585 8.76499C9.36686 8.3597 9.41389 7.93961 9.59365 7.55784C9.77341 7.17607 10.0778 6.84977 10.4684 6.62019C10.859 6.39062 11.3181 6.26808 11.7879 6.26808C12.4178 6.26808 13.0218 6.4882 13.4672 6.88002C13.9126 7.27184 14.1629 7.80327 14.1629 8.35739ZM30.7879 18.8039V25.0718C30.7879 25.4412 30.621 25.7955 30.3241 26.0567C30.0272 26.3179 29.6245 26.4647 29.2045 26.4647C28.7846 26.4647 28.3819 26.3179 28.0849 26.0567C27.788 25.7955 27.6212 25.4412 27.6212 25.0718V18.8039C27.6212 17.8804 27.2042 16.9947 26.4618 16.3416C25.7195 15.6886 24.7127 15.3217 23.6629 15.3217C22.613 15.3217 21.6062 15.6886 20.8639 16.3416C20.1216 16.9947 19.7045 17.8804 19.7045 18.8039V25.0718C19.7045 25.4412 19.5377 25.7955 19.2408 26.0567C18.9438 26.3179 18.5411 26.4647 18.1212 26.4647C17.7013 26.4647 17.2985 26.3179 17.0016 26.0567C16.7047 25.7955 16.5379 25.4412 16.5379 25.0718V13.9289C16.5377 13.5865 16.681 13.256 16.9403 13.0007C17.1996 12.7454 17.5568 12.583 17.9436 12.5447C18.3303 12.5064 18.7196 12.5948 19.037 12.793C19.3543 12.9913 19.5775 13.2854 19.6639 13.6192C20.7347 12.9791 21.9836 12.6078 23.2763 12.5454C24.569 12.483 25.8566 12.7317 27.0005 13.2649C28.1445 13.7981 29.1017 14.5956 29.769 15.5715C30.4363 16.5475 30.7885 17.665 30.7879 18.8039Z" fill="black"/>
</svg>