<svg xmlns="http://www.w3.org/2000/svg" width="39" height="35" viewBox="0 0 39 35" fill="none">
  <path d="M19.7045 9.27851C17.9008 9.27851 16.1375 9.76388 14.6377 10.6733C13.138 11.5826 11.969 12.8752 11.2787 14.3874C10.5885 15.8996 10.4079 17.5637 10.7598 19.169C11.1117 20.7744 11.9803 22.2491 13.2557 23.4065C14.5312 24.5639 16.1562 25.3521 17.9253 25.6714C19.6944 25.9908 21.5281 25.8269 23.1946 25.2005C24.8611 24.5741 26.2854 23.5133 27.2875 22.1524C28.2896 20.7914 28.8245 19.1913 28.8245 17.5545C28.8218 15.3603 27.8601 13.2567 26.1503 11.7052C24.4406 10.1537 22.1225 9.28099 19.7045 9.27851ZM19.7045 23.0718C18.502 23.0718 17.3265 22.7482 16.3267 22.142C15.3268 21.5357 14.5475 20.674 14.0873 19.6659C13.6272 18.6577 13.5068 17.5484 13.7414 16.4781C13.976 15.4079 14.555 14.4248 15.4053 13.6531C16.2556 12.8815 17.339 12.3561 18.5184 12.1432C19.6978 11.9303 20.9203 12.0396 22.0312 12.4571C23.1422 12.8747 24.0918 13.5819 24.7599 14.4892C25.4279 15.3965 25.7845 16.4633 25.7845 17.5545C25.7827 19.0173 25.1415 20.4196 24.0017 21.454C22.8619 22.4883 21.3165 23.0701 19.7045 23.0718ZM28.0645 0.312866H11.3445C8.52361 0.315765 5.81914 1.33395 3.82444 3.14404C1.82975 4.95413 0.707724 7.40831 0.704529 9.96817V25.1408C0.707724 27.7006 1.82975 30.1548 3.82444 31.9649C5.81914 33.775 8.52361 34.7932 11.3445 34.7961H28.0645C30.8855 34.7932 33.5899 33.775 35.5846 31.9649C37.5793 30.1548 38.7013 27.7006 38.7045 25.1408V9.96817C38.7013 7.40831 37.5793 4.95413 35.5846 3.14404C33.5899 1.33395 30.8855 0.315765 28.0645 0.312866ZM35.6645 25.1408C35.6623 26.9693 34.8608 28.7223 33.436 30.0152C32.0112 31.3081 30.0795 32.0354 28.0645 32.0374H11.3445C9.32958 32.0354 7.39781 31.3081 5.97303 30.0152C4.54824 28.7223 3.7468 26.9693 3.74453 25.1408V9.96817C3.7468 8.1397 4.54824 6.38671 5.97303 5.09378C7.39781 3.80086 9.32958 3.07359 11.3445 3.07152H28.0645C30.0795 3.07359 32.0112 3.80086 33.436 5.09378C34.8608 6.38671 35.6623 8.1397 35.6645 9.96817V25.1408ZM31.8645 8.58884C31.8645 8.99805 31.7308 9.39807 31.4803 9.73831C31.2297 10.0786 30.8737 10.3437 30.457 10.5003C30.0404 10.6569 29.582 10.6979 29.1397 10.6181C28.6974 10.5382 28.2912 10.3412 27.9723 10.0518C27.6535 9.76249 27.4363 9.39383 27.3483 8.99248C27.2604 8.59114 27.3055 8.17513 27.4781 7.79707C27.6507 7.41901 27.9429 7.09588 28.3178 6.86853C28.6928 6.64119 29.1336 6.51985 29.5845 6.51985C30.1892 6.51985 30.7691 6.73783 31.1967 7.12584C31.6243 7.51385 31.8645 8.04011 31.8645 8.58884Z" fill="black"/>
</svg>